<?xml version="1.0" encoding="UTF-8" standalone="no"?>
<!-- Created with Inkscape (http://www.inkscape.org/) -->

<svg
   version="1.1"
   id="svg1"
   width="1254"
   height="1254"
   viewBox="0 0 1254 1254"
   sodipodi:docname="WhatsApp Image 2026-09-24 at 15.20.25.jpeg"
   xmlns:inkscape="http://www.inkscape.org/namespaces/inkscape"
   xmlns:sodipodi="http://sodipodi.sourceforge.net/DTD/sodipodi-0.dtd"
   xmlns="http://www.w3.org/2000/svg"
   xmlns:svg="http://www.w3.org/2000/svg">
  <defs
     id="defs1" />
  <sodipodi:namedview
     id="namedview1"
     pagecolor="#ffffff"
     bordercolor="#000000"
     borderopacity="0.25"
     inkscape:showpageshadow="2"
     inkscape:pageopacity="0.0"
     inkscape:pagecheckerboard="0"
     inkscape:deskcolor="#d1d1d1">
    <inkscape:page
       x="0"
       y="0"
       width="1254"
       height="1254"
       id="page2"
       margin="0"
       bleed="0" />
  </sodipodi:namedview>
  <g
     inkscape:groupmode="layer"
     inkscape:label="Image"
     id="g1">
    <path
       style="fill:#000000;stroke-width:1.26516"
       d="m 636.54769,1225.9849 c -5.92028,-5.3487 -6.17495,-7.5354 -1.93767,-16.6368 4.96999,-10.6752 9.20475,-15.2126 25.71712,-27.5543 8.55778,-6.3964 17.17823,-13.8392 19.15658,-16.5398 3.61757,-4.9382 6.63728,-13.3092 5.79862,-16.0746 -0.24803,-0.8179 -0.79142,-3.0422 -1.20752,-4.9431 -0.41608,-1.9008 -2.53469,-5.4811 -4.708,-7.9564 l -3.95147,-4.5005 2.70389,-2.8782 c 2.36509,-2.5175 3.69471,-2.8215 10.61183,-2.4272 8.96892,0.5114 26.03275,4.0244 26.97819,5.5542 0.90019,1.4566 -6.34167,15.3465 -13.7737,26.418 -8.97131,13.3645 -45.968,63.0591 -50.62645,68.0022 -5.00787,5.3137 -8.48755,5.2046 -14.76142,-0.4635 z m -24.1214,-25.2408 -2.96825,-3.1596 5.93778,-5.9378 c 5.49264,-5.4927 6.09268,-5.7829 8.00351,-3.8721 1.91082,1.9108 1.6882,2.5929 -2.96954,9.0973 l -5.03525,7.0316 z m 16.5728,-17.5719 c -2.03072,-2.4469 -1.16749,-3.5764 6.19594,-8.1071 5.40306,-3.3246 6.42181,-3.5794 7.77809,-1.9451 1.70006,2.0484 1.81488,1.897 -5.97855,7.874 -6.04181,4.6333 -5.97335,4.6148 -7.99548,2.1782 z m -35.75575,-4.2244 c -4.6347,-4.988 -14.99084,-19.7892 -21.01551,-30.0356 -11.20871,-19.0631 -15.11968,-39.7561 -11.11023,-58.7845 13.05432,-61.9541 91.18345,-85.1711 136.23252,-40.4831 17.53894,17.3982 24.8666,36.1546 23.62546,60.4732 -0.36663,7.1836 -0.96493,13.3595 -1.32957,13.7241 -0.36463,0.3647 -4.83639,-0.2469 -9.93723,-1.359 -5.10087,-1.112 -12.82776,-2.1574 -17.17091,-2.3229 -4.34313,-0.1656 -7.90138,-0.3975 -7.90724,-0.5152 -0.007,-0.1176 0.90961,-3.8061 2.0343,-8.1962 2.68478,-10.4798 1.68796,-19.5837 -3.24039,-29.5946 -12.8985,-26.2005 -48.04401,-34.117 -72.32726,-16.2915 -13.00034,9.5432 -20.60576,27.5595 -17.86206,42.3129 1.93161,10.3867 4.89282,16.0397 12.26746,23.4187 9.38528,9.3909 22.16742,14.5005 36.27468,14.5005 4.27267,0 4.88794,0.3703 4.88794,2.9424 0,4.4675 -4.12559,7.454 -22.83392,16.5292 -9.42739,4.5732 -19.45097,10.2924 -22.2746,12.7092 l -5.13388,4.3945 z m 55.9269,-9.7784 c -0.8802,-1.0606 -1.3769,-2.0894 -1.10377,-2.2863 0.2731,-0.1968 2.8603,-2.1792 5.7493,-4.4054 4.79774,-3.6969 9.29658,-4.3988 9.29658,-1.4506 0,1.0572 -10.45225,10.0707 -11.6781,10.0707 -0.36501,0 -1.38382,-0.8678 -2.26401,-1.9284 z m 12.32874,-21.7927 c -0.43444,-3.8543 -0.15321,-6.3408 0.78433,-6.9348 2.24371,-1.4213 4.62451,2.7615 4.62451,8.1248 0,3.8636 -0.46893,4.8188 -2.36579,4.8188 -1.88378,0 -2.50375,-1.2241 -3.04305,-6.0088 z m -29.69928,-18.8196 c -1.028,-0.4456 -1.58144,-3.5072 -1.58144,-8.7482 v -8.0627 l -9.17239,-0.3717 -9.17239,-0.3717 v -8.8561 -8.8561 l 9.11807,-0.3705 9.11805,-0.3708 0.37062,-9.118 0.37062,-9.118 h 9.48867 9.48869 l 0.63257,8.8561 0.63259,8.856 7.59093,0.3734 c 11.17739,0.5498 10.92207,0.3054 10.49575,10.0468 l -0.37449,8.5572 -8.8561,0.6325 -8.85609,0.6326 -0.37667,7.9072 c -0.24141,5.0683 -0.92278,7.9261 -1.89773,7.9594 -0.83659,0.03 -4.65234,0.2897 -8.47945,0.5801 -3.82709,0.2903 -7.67001,0.2195 -8.53981,-0.1575 z M 48.724757,866.0457 c 2.420501,-19.41042 3.742594,-26.48796 4.877309,-26.10981 0.689507,0.22988 3.139615,5.43019 5.444474,11.55633 2.304991,6.12614 4.459931,11.40755 4.789004,11.73661 0.328942,0.32894 2.707939,-4.84695 5.286584,-11.50205 2.578644,-6.6551 5.129711,-12.10021 5.669046,-12.10021 0.936844,0 2.793721,10.44538 4.621617,25.99797 0.693937,5.9046 0.523644,7.12878 -0.925209,6.65168 -1.199115,-0.39485 -2.218836,-4.24929 -3.140756,-11.87287 -1.484787,-12.27809 -1.203293,-12.37007 -6.787949,2.21871 -1.778299,4.64553 -3.802685,8.5493 -4.498519,8.67506 -0.695834,0.12651 -2.973116,-4.38441 -5.060629,-10.02271 -2.087503,-5.63842 -4.127953,-10.25384 -4.534453,-10.2565 -0.406489,0 -1.260466,4.65009 -1.897734,10.33962 -0.776419,6.93117 -1.741609,10.53471 -2.925296,10.92097 -1.432284,0.46735 -1.605856,-0.71241 -0.917489,-6.2328 z m 42.618339,5.52609 c 0.220646,-2.56018 13.359684,-30.9875 14.392174,-31.13856 1.66229,-0.24316 14.63635,30.66576 13.23532,31.53164 -1.57853,0.97556 -3.67137,-0.50164 -3.67137,-2.59142 0,-3.64075 -3.23171,-5.08277 -10.41831,-4.64921 -6.452679,0.38942 -7.21367,0.75303 -8.604966,4.11177 -1.330941,3.21325 -5.156905,5.33517 -4.932848,2.73578 z m 19.802244,-12.01901 c -0.3459,-0.86979 -1.63724,-4.0757 -2.86938,-7.12421 l -2.24021,-5.54279 -2.16595,4.27763 c -1.19128,2.35268 -2.56119,5.55859 -3.04435,7.12423 -0.8245,2.67138 -0.51441,2.84659 5.0352,2.84659 4.22322,0 5.73407,-0.45216 5.28469,-1.58145 z m 22.4153,11.30913 c -0.35008,-0.91244 -0.47457,-8.12485 -0.27657,-16.02778 0.25316,-10.10443 0.82931,-14.5245 1.94138,-14.89356 1.21139,-0.40206 1.58145,3.34913 1.58145,16.02766 0,10.52724 -0.47493,16.55242 -1.30475,16.55242 -0.71773,0 -1.59132,-0.74644 -1.94151,-1.65874 z m 21.24186,-0.61374 c -2.25603,-1.7363 -2.54739,-2.54827 -1.34575,-3.75005 1.20177,-1.20177 2.00515,-1.10739 3.71008,0.43559 1.31373,1.18888 3.8529,1.80881 6.40637,1.56412 3.75562,-0.3598 4.23005,-0.82653 4.23005,-4.16047 0,-3.07508 -0.91648,-4.25788 -5.06063,-6.53061 -2.78335,-1.52655 -6.05694,-3.77916 -7.27465,-5.00598 -6.78087,-6.83146 4.05281,-16.68021 13.05111,-11.86451 4.37175,2.33965 2.61989,3.65213 -3.85202,2.8857 -5.28482,-0.62588 -6.43763,-0.385 -7.15966,1.49667 -1.25971,3.2827 0.90864,5.88476 7.89041,9.4692 5.76406,2.9592 6.22798,3.55395 6.58426,8.44176 0.31236,4.28762 -0.14828,5.63059 -2.49566,7.27466 -3.78281,2.64961 -11.07366,2.52247 -14.68391,-0.25608 z m 51.41196,-0.1489 c -3.67309,-2.97781 -2.27269,-4.84986 2.12805,-2.84471 4.3909,2.00059 8.81102,1.84852 10.64921,-0.36639 2.58246,-3.11165 0.92609,-6.26974 -4.70755,-8.97565 -7.13718,-3.42807 -9.47503,-5.9422 -9.47503,-10.18933 0,-6.45344 8.93349,-10.34481 15.58134,-6.78693 4.22848,2.26298 2.68705,3.47285 -4.19493,3.29244 -6.34661,-0.16637 -6.65979,-0.0203 -7.04058,3.28637 -0.33876,2.9415 0.32532,3.78738 4.42805,5.64032 7.01882,3.16998 10.51977,6.66739 10.51977,10.50916 0,7.64787 -11.35403,11.73218 -17.88833,6.43472 z m 28.00959,1.50124 c 0,-2.5555 13.45071,-31.9136 14.46731,-31.57694 1.30681,0.43269 13.36614,28.28992 13.36614,30.87591 0,3.04118 -2.65861,1.63079 -3.95928,-2.10041 -1.46629,-4.20615 -2.77881,-4.67906 -11.298,-4.07065 -5.29451,0.37803 -6.22651,0.88472 -7.56316,4.11177 -1.33766,3.22931 -5.01301,5.25318 -5.01301,2.76032 z m 19.88411,-12.04773 c -0.34601,-0.86979 -1.63769,-4.07684 -2.87038,-7.12662 l -2.24128,-5.54532 -2.901,5.54532 c -4.16837,7.96771 -3.92919,8.70807 2.81321,8.70807 4.15495,0 5.64792,-0.45405 5.19945,-1.58145 z m 23.51807,9.91682 c -3.41015,-2.93099 -3.5667,-3.57774 -3.98118,-16.44704 -0.37314,-11.58556 -0.1594,-13.39599 1.58145,-13.39599 1.69578,0 2.01289,1.84914 2.01289,11.7375 0,14.00895 1.58784,17.36111 8.22353,17.36111 6.63568,0 8.22352,-3.35216 8.22352,-17.36111 0,-9.88836 0.31711,-11.7375 2.01288,-11.7375 1.74087,0 1.9546,1.81043 1.58145,13.39599 -0.41447,12.8693 -0.57102,13.51605 -3.98117,16.44704 -2.24074,1.92595 -5.13059,3.05105 -7.83668,3.05105 -2.7061,0 -5.59594,-1.1251 -7.83669,-3.05105 z m 36.30273,-13.396 v -16.44703 h 6.45087 c 12.2405,0 18.85226,5.76823 18.85226,16.44703 0,10.67882 -6.61176,16.44705 -18.85226,16.44705 h -6.45087 z m 15.69396,11.21107 c 1.7388,-0.79224 4.10845,-3.43604 5.26588,-5.87514 1.74977,-3.68743 1.85847,-5.25571 0.64498,-9.30599 -1.73093,-5.77734 -6.39789,-8.6815 -13.95105,-8.6815 h -5.12346 v 12.65156 12.65158 h 5.0011 c 2.7506,0 6.42375,-0.64814 8.16255,-1.44051 z m 25.68465,4.44273 c -0.49147,-0.49152 -0.89359,-7.91521 -0.89359,-16.49727 v -15.60356 h 9.48868 c 7.59094,0 9.48869,0.37954 9.48869,1.89773 0,1.47606 -1.68688,1.89774 -7.59095,1.89774 h -7.59094 v 5.06062 5.06063 h 6.95836 c 5.34178,0 6.95837,0.44091 6.95837,1.89774 0,1.45682 -1.61659,1.89773 -6.95837,1.89773 h -6.95836 v 5.63286 5.63286 l 7.90722,0.37665 c 4.34899,0.2071 7.90724,0.94595 7.90724,1.64179 0,1.44366 -17.35316,2.46768 -18.71635,1.10448 z m 32.0005,-1.73706 c 0,-1.90545 0.66061,-2.58864 2.21403,-2.28943 1.21771,0.23443 2.21402,1.26478 2.21402,2.28943 0,1.02465 -0.99631,2.05499 -2.21402,2.28942 -1.55342,0.29922 -2.21403,-0.38384 -2.21403,-2.28942 z m 35.85057,-1.18204 c 0.40835,-2.04171 1.40178,-8.73122 2.20762,-14.8656 2.44063,-18.57921 2.9448,-18.67739 8.79932,-1.71188 2.39224,6.9323 4.71185,12.19852 5.15467,11.7027 0.44281,-0.49581 2.68447,-6.02543 4.98144,-12.28796 4.69114,-12.78999 4.67727,-12.76253 5.85067,-11.58909 1.40347,1.40343 5.21372,30.47751 4.14891,31.65815 -1.91841,2.12711 -3.73659,-0.67951 -3.82911,-5.91069 -0.0516,-2.91631 -0.48786,-7.86422 -0.9695,-10.99548 l -0.87571,-5.69321 -4.24628,11.7027 c -2.33546,6.43649 -4.67037,11.70271 -5.18872,11.70271 -0.51834,0 -2.92293,-5.17285 -5.34353,-11.49509 l -4.4011,-11.49522 -1.57089,11.49522 c -1.20482,8.8165 -2.02404,11.49509 -3.51556,11.49509 -1.47632,0 -1.76587,-0.89409 -1.20223,-3.71235 z m 43.43872,2.76349 c -0.82203,-1.38067 12.29569,-30.91323 13.74332,-30.94107 1.03769,-0.0203 14.18641,28.18555 14.42395,30.94107 0.22804,2.64518 -3.61391,0.44862 -4.97882,-2.84661 -1.51083,-3.64745 -1.88202,-3.79547 -9.51841,-3.79547 -7.69171,0 -7.98865,0.12146 -9.26938,3.79547 -1.26458,3.62759 -3.19298,4.87503 -4.40066,2.84661 z m 18.69498,-13.17396 c -0.47766,-1.50503 -1.74001,-4.77862 -2.80519,-7.27465 l -1.9367,-4.53825 -2.89561,6.32579 c -1.5926,3.47918 -2.93056,6.75277 -2.97327,7.27465 -0.0427,0.52188 2.52265,0.94886 5.70082,0.94886 5.34778,0 5.71372,-0.20393 4.90995,-2.7364 z M 507.498,856.0736 c 0,-12.76404 0.36967,-16.53471 1.58145,-16.13075 1.15119,0.38373 1.58145,4.77243 1.58145,16.13075 0,11.35834 -0.43026,15.74704 -1.58145,16.13076 -1.21178,0.40397 -1.58145,-3.36671 -1.58145,-16.13076 z m 20.06639,14.02567 c -3.43646,-2.78601 -2.20214,-5.20828 1.48167,-2.90758 3.35339,2.09421 9.44145,1.93063 11.2956,-0.30352 2.60553,-3.13936 0.92633,-5.96141 -5.5978,-9.40746 -3.45444,-1.82461 -7.14334,-4.85415 -8.19754,-6.73228 -1.76935,-3.15239 -1.71456,-3.68692 0.71272,-6.95217 1.52212,-2.04752 4.09921,-3.71121 6.11952,-3.95057 3.597,-0.42611 10.80901,1.92177 10.80901,3.51903 0,2.02679 -1.60324,2.22504 -4.85898,0.60083 -5.84104,-2.91391 -11.43234,0.15396 -9.49274,5.2084 0.41291,1.07602 3.50586,3.35254 6.87322,5.05885 9.31344,4.71955 11.45233,10.91287 5.41014,15.66568 -4.17152,3.28131 -10.64486,3.37064 -14.55482,0.20079 z m 46.70394,1.71669 c -1.00422,-1.00428 12.16423,-31.14248 13.62306,-31.17866 1.02869,-0.0253 14.17532,28.19364 14.41161,30.93449 0.22804,2.64518 -3.61392,0.44862 -4.97883,-2.84661 -0.86467,-2.08751 -2.21472,-3.86 -3.00009,-3.93894 -1.54232,-0.15485 -10.64454,-0.12652 -12.97718,0.0405 -0.78536,0.0569 -2.13542,1.81032 -3.00009,3.89782 -1.53005,3.69389 -2.6367,4.53256 -4.07848,3.09079 z m 19.2032,-12.26318 c -0.0314,-0.86979 -1.35688,-4.06558 -2.94544,-7.1017 l -2.88827,-5.52026 -2.74776,6.3874 c -1.51127,3.5131 -2.74778,6.70875 -2.74778,7.10171 0,0.39283 2.56195,0.7143 5.69322,0.7143 3.7416,0 5.67361,-0.54212 5.63603,-1.58145 z m 26.86304,11.63414 c -6.04822,-2.4258 -9.11226,-7.62232 -9.04884,-15.34648 0.0247,-3.00298 0.7747,-6.7753 1.66675,-8.3828 2.34759,-4.23057 8.40045,-7.81311 13.21685,-7.82273 5.32389,-0.0126 12.42634,3.50677 10.65591,5.2771 -0.85616,0.85626 -2.1228,0.82084 -3.85766,-0.10757 -4.39904,-2.35421 -10.89844,-1.66621 -13.83092,1.46429 -5.98117,6.385 -6.16295,12.90511 -0.52908,18.97736 3.66289,3.94793 10.53677,4.69044 14.64366,1.5817 2.40337,-1.81917 4.55796,-1.50035 4.55796,0.67446 0,1.83397 -7.11585,5.02647 -11.0073,4.93829 -1.94809,-0.0443 -4.8584,-0.60817 -6.46733,-1.25353 z m 31.39136,-15.11332 v -16.44703 h 9.48868 c 7.59094,0 9.48868,0.37954 9.48868,1.89773 0,1.47606 -1.68687,1.89774 -7.59094,1.89774 h -7.59095 v 5.06062 5.06063 h 6.32579 c 4.77949,0 6.32579,0.46394 6.32579,1.89774 0,1.43381 -1.5463,1.89773 -6.32579,1.89773 h -6.32579 v 5.69322 5.6932 h 7.59095 c 5.90407,0 7.59094,0.42168 7.59094,1.89774 0,1.51818 -1.89774,1.89773 -9.48868,1.89773 h -9.48868 z m 34.0981,14.1217 c -3.77231,-3.05472 -2.23417,-6.13057 1.69086,-3.3814 5.54285,3.8824 13.07431,1.36409 12.0752,-4.03749 -0.23142,-1.25112 -2.76422,-3.41339 -5.62846,-4.80506 -7.693,-3.73791 -9.34161,-5.53873 -9.34161,-10.20439 0,-4.91273 3.65612,-8.14039 9.22078,-8.14039 4.17916,0 8.49142,2.01969 8.49142,3.97714 0,1.27565 -3.29234,0.90294 -8.00817,-0.90661 -2.53854,-0.97417 -7.33645,3.88934 -6.35639,6.44332 0.41795,1.08917 3.1093,3.16113 5.98078,4.60416 7.39762,3.71779 9.64894,6.0267 9.64894,9.89555 0,7.58968 -11.33356,11.76976 -17.77335,6.55517 z m 32.7791,-0.0962 c -3.67308,-2.97793 -2.27267,-4.84985 2.12806,-2.84483 4.81197,2.19252 9.1712,1.79639 10.6506,-0.96798 1.90307,-3.55585 0.35427,-6.25595 -4.83147,-8.42265 -10.13737,-4.23562 -13.07246,-10.8133 -6.96785,-15.61508 3.75307,-2.95225 7.67503,-3.31661 12.42142,-1.15395 6.1073,2.78271 2.96341,4.87427 -3.58451,2.38482 -2.48213,-0.94367 -3.81335,-0.68457 -6.09187,1.18584 -3.78488,3.10709 -2.19811,5.9957 5.26504,9.58483 9.26105,4.45373 11.26342,9.69502 5.79353,15.16493 -3.82617,3.82622 -10.52481,4.13618 -14.78295,0.68407 z m 37.24341,-0.0582 c -7.35072,-4.48207 -9.6916,-12.45597 -6.14706,-20.93924 4.7919,-11.46864 22.08265,-12.4809 28.09576,-1.64482 2.22202,4.00434 2.11515,13.02188 -0.20758,17.51357 -3.76723,7.28502 -14.14114,9.70438 -21.74112,5.07049 z m 16.37858,-4.79558 c 7.98756,-8.38825 2.98228,-21.82396 -8.13022,-21.82396 -9.15279,0 -15.00198,10.31748 -10.6358,18.76076 2.51225,4.85821 5.19933,6.45483 10.94542,6.50393 3.30217,0.0279 5.39362,-0.89194 7.8206,-3.44073 z m 19.30068,6.0095 c -1.05898,-1.71354 0.36998,-3.79548 2.60499,-3.79548 1.00269,0 1.82307,1.13865 1.82307,2.53032 0,2.61925 -3.05221,3.49133 -4.42806,1.26516 z m 36.12537,-1.47606 c 0.16247,-7.01314 4.47199,-29.47589 5.62483,-29.3185 0.69583,0.0948 3.31663,5.75305 5.824,12.57363 l 4.55882,12.40082 2.77431,-7.52743 c 8.94074,-24.25901 8.53333,-24.29405 11.68052,1.0053 0.84349,6.78061 1.18884,12.6732 0.76745,13.09462 -1.97765,1.97758 -3.23669,-1.60624 -4.06728,-11.57719 -0.49767,-5.97433 -1.27736,-10.4998 -1.73265,-10.05661 -0.4553,0.44318 -2.55413,5.46509 -4.66406,11.15995 -2.10992,5.69473 -4.35588,10.35405 -4.99103,10.35405 -0.63513,0 -3.00594,-5.12389 -5.26847,-11.38642 -2.26253,-6.26253 -4.18705,-11.10176 -4.27673,-10.75384 -0.0897,0.34793 -0.83178,5.42639 -1.64912,11.28533 -0.87052,6.24026 -2.14114,10.86935 -3.06753,11.17564 -0.97352,0.32173 -1.55515,-0.61208 -1.51306,-2.42935 z m 42.94697,2.25021 c 0,-0.27011 2.60621,-6.67497 5.79157,-14.23302 3.18536,-7.55818 6.10444,-14.7616 6.48686,-16.00779 0.38242,-1.24618 1.23293,-2.08649 1.89004,-1.86749 1.33911,0.44635 13.66498,28.35736 13.66498,30.94334 0,3.09724 -2.65674,1.6709 -3.98504,-2.13951 -0.72772,-2.0875 -1.69441,-3.829 -2.14823,-3.86986 -0.45379,-0.0405 -3.873,-0.22128 -7.59825,-0.40067 -6.54641,-0.31528 -6.84013,-0.18573 -8.77413,3.86985 -1.10054,2.30791 -2.74952,4.19615 -3.66439,4.19615 -0.91489,0 -1.66341,-0.22102 -1.66341,-0.491 z m 20.16487,-11.84428 c -0.0428,-0.52188 -1.36929,-3.79547 -2.94798,-7.27465 l -2.8703,-6.32579 -2.74525,6.1703 c -1.50988,3.39366 -2.74525,6.66725 -2.74525,7.27465 0,0.60741 2.56195,1.10436 5.69321,1.10436 3.13127,0 5.65827,-0.42699 5.61557,-0.94887 z m 21.58531,-4.11176 c 0,-10.12125 0.48661,-16.44704 1.26516,-16.44704 0.77856,0 1.26516,6.32579 1.26516,16.44704 0,10.12126 -0.4866,16.44704 -1.26516,16.44704 -0.77855,0 -1.26516,-6.32578 -1.26516,-16.44704 z m 20.06639,14.02566 c -3.67309,-2.9778 -2.27269,-4.84985 2.12805,-2.84471 4.3909,2.0006 8.81102,1.84852 10.64921,-0.36639 2.58246,-3.11165 0.92609,-6.26973 -4.70755,-8.97565 -7.05751,-3.38987 -9.47503,-5.93903 -9.47503,-9.99133 0,-4.81329 3.70154,-8.29462 8.81907,-8.29462 4.80522,0 9.20942,1.90203 9.20942,3.97714 0,1.27567 -3.29234,0.90295 -8.00816,-0.90661 -2.54205,-0.97556 -7.33642,3.88948 -6.35457,6.44813 0.41896,1.09183 3.51688,3.38126 6.88423,5.08758 9.21517,4.66969 11.09339,9.72728 5.63827,15.18251 -3.82617,3.8261 -10.52481,4.13606 -14.78294,0.68395 z m 50.78245,-13.92027 v -16.55243 h 5.75598 c 6.34307,0 12.48296,2.57686 13.70066,5.74988 3.0954,8.06664 -2.015,15.75779 -10.47035,15.75779 -5.01537,0 -5.04772,0.0316 -5.43436,5.27861 -0.21405,2.90316 -1.10071,5.51255 -1.97049,5.7986 -1.21114,0.39827 -1.58144,-3.35646 -1.58144,-16.03245 z m 15.13736,-1.28743 c 1.75718,-3.28333 1.65655,-8.08625 -0.20857,-9.95135 -0.83501,-0.83499 -3.68153,-1.51818 -6.32574,-1.51818 h -4.80758 v 6.95836 6.95837 h 5.01614 c 3.66443,0 5.36901,-0.6594 6.32575,-2.4472 z m 19.59248,16.02613 c -0.3618,-0.94305 -0.4959,-8.22707 -0.298,-16.18655 l 0.36,-14.47201 h 9.1724 c 11.3133,0 12.8699,2.38432 1.8976,2.90696 l -7.9071,0.37663 v 5.00029 5.00027 h 6.9583 c 5.3418,0 6.9583,0.44091 6.9583,1.89774 0,1.45683 -1.6165,1.89774 -6.9583,1.89774 h -6.9583 v 5.63285 5.63286 l 7.9071,0.37665 c 10.8738,0.51795 9.9715,2.82344 -1.2834,3.27903 -6.8333,0.27669 -9.3594,-0.067 -9.8486,-1.34246 z m 34.7926,-0.7224 c -3.7723,-3.05472 -2.2342,-6.13057 1.6909,-3.38138 3.4606,2.42378 8.9904,2.46122 10.9715,0.0747 2.4643,-2.96945 0.342,-6.60337 -5.4459,-9.32396 -6.6122,-3.10811 -8.7367,-5.52962 -8.7367,-9.95793 0,-6.67066 8.4936,-10.0294 15.4981,-6.12867 2.6856,1.49567 2.8438,1.88534 1.0477,2.58295 -1.1633,0.45179 -3.2983,0.18826 -4.7443,-0.58564 -4.3003,-2.30145 -9.5762,1.67645 -7.9781,6.01531 0.3322,0.90206 3.3591,3.03626 6.7265,4.74257 9.2152,4.6697 11.0934,9.72729 5.6382,15.18239 -3.7862,3.78637 -10.5134,4.14403 -14.6679,0.77997 z m 34.3203,0.72531 c -4.2956,-2.19175 -5.2454,-5.43006 -1.2181,-4.15313 6.6277,2.10168 10.7465,2.17835 12.3632,0.23051 2.6714,-3.21894 1.0811,-6.34881 -4.6166,-9.08547 -7.1372,-3.42807 -9.475,-5.9422 -9.475,-10.18932 0,-4.4631 4.3546,-8.09663 9.7033,-8.09663 4.7811,0 9.1196,2.75172 7.7733,4.93019 -0.5849,0.94621 -1.4921,1.0874 -2.4073,0.37461 -4.7608,-3.70754 -10.9575,-2.00983 -10.9575,3.00209 0,2.38191 1.1229,3.62708 4.7443,5.26115 6.9373,3.13001 10.4376,6.6412 10.4376,10.46994 0,7.03707 -8.9715,11.01928 -16.3472,7.25606 z m 36.4288,-0.5301 c -10.0554,-6.24052 -9.9341,-22.70173 0.2112,-28.69478 7.625,-4.50408 17.9469,-1.13257 21.8748,7.1451 2.5889,5.45549 2.6524,8.5531 0.2912,14.20405 -3.4416,8.23681 -14.8873,11.99407 -22.3772,7.34563 z m 15.9814,-4.71929 c 7.4059,-7.40585 4.5865,-19.36842 -5.2154,-22.13025 -8.0603,-2.27109 -14.4005,3.78054 -14.4005,13.74492 0,9.7856 12.7607,15.24058 19.6159,8.38533 z m 17.4169,5.26798 c 6.61,-17.02395 12.9877,-31.29694 13.8555,-31.00773 1.4706,0.49024 14.7699,31.03215 13.8942,31.9079 -1.5387,1.53868 -2.9951,0.47013 -4.2446,-3.11419 -1.1858,-3.40162 -1.901,-3.81192 -6.8926,-3.95361 -3.0632,-0.0873 -6.5658,-0.22924 -7.7835,-0.31629 -1.3655,-0.0974 -2.9076,1.4176 -4.0238,3.95361 -1.6567,3.76397 -6.2166,6.16512 -4.8052,2.53031 z m 19.8215,-10.75383 c -0.043,-0.52188 -1.3939,-3.79547 -3.0025,-7.27465 l -2.9248,-6.32579 -2.6907,6.11438 c -1.4799,3.36291 -2.6908,6.63651 -2.6908,7.27466 0,0.63814 2.5619,1.16027 5.6932,1.16027 3.1313,0 5.6583,-0.42699 5.6156,-0.94887 z m 21.4092,9.9139 c -3.4364,-2.786 -2.2022,-5.20828 1.4817,-2.90758 3.822,2.38684 9.7911,1.90861 11.2969,-0.90522 1.8197,-3.39986 0.528,-5.91209 -4.0054,-7.78983 -5.9168,-2.45087 -11.1274,-7.38561 -11.1274,-10.53851 0,-6.53757 10.1658,-10.72068 15.887,-6.53732 3.2873,2.4038 1.3822,4.04711 -2.5925,2.23617 -4.0685,-1.85371 -9.499,0.0519 -9.499,3.33318 0,2.82383 2.7365,5.25597 9.2011,8.17785 4.2564,1.92367 7.2459,6.00899 7.2459,9.90163 0,0.68217 -1.3974,2.63773 -3.1053,4.34568 -3.8262,3.8261 -10.5249,4.13606 -14.783,0.68395 z m 29.9073,1.15623 c -1.059,-1.71354 0.3699,-3.79548 2.6049,-3.79548 1.0028,0 1.8231,1.13865 1.8231,2.53032 0,2.61925 -3.0521,3.49133 -4.428,1.26516 z M 282.30002,836.10323 c 0,-0.54579 1.66878,-1.97807 3.70839,-3.18301 4.43125,-2.61761 6.49006,-0.7038 2.35705,2.19113 -3.02973,2.12204 -6.06544,2.61849 -6.06544,0.99188 z m -37.32214,-38.06251 c -46.38077,-13.35108 -64.56038,-65.99491 -35.97112,-104.16406 24.65664,-32.91874 79.49761,-36.40337 109.14705,-6.93531 26.08597,25.92646 26.45617,67.2384 0.83578,93.26407 -13.73389,13.95115 -30.40652,20.26427 -53.11119,20.11056 -8.58484,-0.0582 -16.00426,-0.86588 -20.90052,-2.27526 z m 35.42441,-33.07995 c 6.40931,-2.8409 11.24534,-7.4839 14.8573,-14.26401 2.33149,-4.37655 2.83837,-7.35309 2.84582,-16.71146 0.008,-10.13252 -0.37131,-12.03341 -3.44529,-17.26257 -8.92953,-15.18985 -25.21888,-20.59929 -41.25558,-13.70051 -12.4382,5.35073 -18.28876,15.20997 -18.37387,30.96308 -0.0462,8.5469 0.46755,11.12883 3.30264,16.59848 8.13438,15.6939 25.6184,21.66898 42.06898,14.37699 z m 111.951,34.10839 c -18.42151,-2.71351 -29.58955,-12.69395 -33.68775,-30.10542 -1.14702,-4.87326 -1.68799,-16.68148 -1.70148,-37.1392 l -0.0197,-29.99435 -9.80497,-0.36943 -9.80496,-0.36954 v -15.81447 -15.81447 l 9.80496,-0.3695 9.80497,-0.36951 v -17.65835 -17.65898 h 18.85863 18.85865 l 0.86664,6.30126 c 0.47666,3.46569 0.47818,8.60061 0.003,11.41094 -0.4748,2.81032 -0.47563,7.92811 -10e-4,11.37289 l 0.86141,6.26325 15.38468,0.35431 15.38367,0.35433 v 15.81446 15.81446 l -15.49817,0.35526 -15.49818,0.35526 -0.29523,17.35695 c -0.39261,23.08 0.28157,39.63168 1.72416,42.33076 2.31071,4.32305 8.59496,6.4017 16.84602,5.57226 4.21343,-0.4237 8.85252,-1.10802 10.30911,-1.52085 2.54779,-0.72215 2.68056,-0.18597 3.4979,14.12447 0.60842,10.65289 0.43706,15.13002 -0.60372,15.77322 -4.63769,2.86635 -25.73963,5.03723 -35.28911,3.63063 z m 75.29227,0.21799 c -20.31308,-5.2776 -32.60311,-19.79034 -32.8014,-38.73354 -0.12069,-11.52875 2.83986,-19.17435 9.9693,-25.74609 12.42839,-11.45599 24.0437,-14.42924 54.18859,-13.87055 l 21.41198,0.39677 -0.56356,-5.84782 c -0.30995,-3.21641 -1.79995,-7.58424 -3.31111,-9.70654 -7.89906,-11.09315 -34.23212,-11.19373 -49.42408,-0.18875 -2.82756,2.04827 -5.63468,3.7241 -6.23805,3.7241 -1.13355,0 -19.49095,-20.58058 -20.16731,-22.60968 -0.57856,-1.73567 14.0315,-11.03659 22.04779,-14.03586 3.90201,-1.45994 12.57593,-3.58445 19.27535,-4.72115 10.08188,-1.7106 14.25183,-1.83065 24.19979,-0.69666 22.0134,2.50931 34.53855,9.02289 43.86856,22.81336 7.7688,11.48295 8.34837,15.89998 8.50215,64.79565 l 0.13331,42.38277 h -18.97736 c -14.2541,0 -19.01671,-0.39359 -19.1355,-1.58145 -0.0871,-0.86979 -0.22931,-2.80827 -0.31628,-4.30786 -0.14681,-2.53094 -0.31934,-2.58054 -2.40649,-0.69165 -1.23659,1.11915 -5.64882,3.61354 -9.80496,5.54316 -6.70269,3.11203 -9.20079,3.54016 -22.10594,3.78825 -8.00212,0.15385 -16.25727,-0.16408 -18.34478,-0.70646 z m 36.33398,-28.03538 c 9.40374,-2.61166 16.17004,-10.95714 16.17004,-19.94381 v -4.94322 l -7.77653,-0.81274 c -19.75686,-2.06499 -30.78255,-0.40307 -36.72057,5.53494 -6.02346,6.02341 -4.1982,14.77274 3.99233,19.13676 4.97774,2.65228 16.70289,3.14759 24.33473,1.02807 z m 111.05684,27.22897 c -16.56275,-3.39871 -30.33696,-9.59154 -43.96422,-19.7658 -3.65315,-2.72756 -6.64207,-5.48585 -6.64207,-6.12943 0,-0.89827 13.44883,-16.97943 21.58833,-25.8139 0.58736,-0.63751 3.85755,1.40154 7.49957,4.67602 8.27078,7.4361 19.10644,12.82478 31.19739,15.51475 26.40662,5.87502 48.28302,-4.08595 43.56419,-19.83601 -2.0079,-6.7018 -7.48787,-10.09368 -25.40974,-15.7278 -45.02673,-14.15522 -47.52862,-15.23439 -57.7672,-24.91753 -9.89631,-9.35963 -13.54492,-17.78875 -13.5594,-31.32555 -0.01,-9.10294 0.53571,-11.96236 3.55312,-18.62611 6.72492,-14.85155 22.30079,-25.90985 42.58933,-30.23688 12.53462,-2.67332 35.99687,-1.69603 49.22214,2.05028 13.64216,3.8644 36.68956,16.75537 36.68956,20.52139 0,1.63038 -20.13869,25.02617 -21.54212,25.02617 -0.59475,0 -1.46244,-0.61657 -1.92817,-1.37015 -1.68953,-2.73374 -14.32718,-9.93808 -22.21887,-12.66632 -10.88474,-3.76297 -31.051,-4.09321 -38.16192,-0.62492 -6.4969,3.16878 -9.77055,7.65723 -9.77055,13.39623 0,9.5235 6.37814,13.33265 38.10741,22.75854 21.88057,6.50011 31.3564,10.36593 40.3057,16.44324 11.70855,7.95113 17.38085,17.15287 19.11679,31.01179 3.35479,26.78312 -14.88843,49.33658 -45.02589,55.664 -10.93751,2.2964 -36.2028,2.28463 -47.44338,-0.0215 z m 129.0767,-0.10252 c -13.32817,-3.58154 -23.11293,-11.6068 -28.2153,-23.14163 -3.23581,-7.315 -3.43443,-22.63746 -0.38412,-29.63364 5.09638,-11.68892 18.23339,-20.75884 34.47219,-23.80001 4.30839,-0.80693 15.67524,-1.15041 27.30694,-0.82526 l 19.92623,0.55704 v -3.62012 c 0,-8.96137 -7.11807,-17.46563 -16.82086,-20.09664 -10.81675,-2.93302 -28.28685,1.25984 -39.47864,9.47514 -2.37724,1.74503 -3.06607,1.24112 -11.38642,-8.32789 -4.87086,-5.60188 -8.85609,-11.11575 -8.85609,-12.25298 0,-1.13724 3.4233,-4.36291 7.60732,-7.16816 22.02704,-14.76843 58.19761,-16.87909 80.65108,-4.70625 8.62732,4.67719 17.68998,14.79255 21.28326,23.75543 2.97165,7.4123 3.03825,8.44872 3.43236,53.42088 l 0.4019,45.86195 h -18.41696 -18.41695 v -4.42805 c 0,-2.43543 -0.32265,-4.42805 -0.717,-4.42805 -0.39435,0 -2.6542,1.47757 -5.02189,3.28346 -9.87123,7.5292 -31.58966,10.31458 -47.36705,6.07478 z m 38.94899,-27.78539 c 8.95448,-3.74145 14.15695,-10.83366 14.15695,-19.29921 0,-4.74624 -0.20251,-4.99143 -4.74434,-5.74204 -7.60277,-1.25668 -25.8177,-0.91863 -31.21295,0.57944 -2.7285,0.75745 -6.6427,3.05915 -8.6982,5.11465 -3.26858,3.26853 -3.64993,4.38846 -3.04081,8.92986 0.8277,6.1708 5.09272,10.93299 11.16244,12.46345 5.563,1.40255 16.52085,0.40067 22.37691,-2.04615 z m 90.42827,28.04803 c -8.82085,-2.87228 -16.56992,-8.12774 -21.86883,-14.83143 -9.0702,-11.4746 -9.36347,-13.4619 -9.82644,-66.58712 -0.3304,-37.91224 -0.0902,-47.14769 1.22832,-47.23251 0.90146,-0.0579 3.06232,-0.32683 4.80191,-0.59741 1.73959,-0.27059 9.25524,-0.16275 16.70142,0.23966 l 13.53852,0.73164 0.37821,42.79062 c 0.36178,40.93278 0.49146,42.94235 2.98669,46.28224 5.26357,7.04515 8.84795,8.70834 18.76807,8.70834 7.94009,0 9.89512,-0.47849 14.55585,-3.56282 9.86411,-6.52783 10.18615,-8.23566 10.21805,-54.19073 l 0.0278,-40.04133 15.5771,-0.89845 c 8.5674,-0.49416 16.68021,-0.6861 18.02848,-0.42652 2.38151,0.45847 2.46075,2.30215 2.77929,64.66152 l 0.32783,64.18952 h -18.28707 -18.28706 l -0.38561,-5.80644 -0.38561,-5.80644 -3.79547,3.31041 c -2.0875,1.82068 -6.90776,4.84542 -10.71167,6.72152 -5.80733,2.86432 -8.84993,3.46502 -18.97736,3.74652 -7.66926,0.21318 -14.00247,-0.29693 -17.39247,-1.40079 z m 141.33576,0.86094 c -6.2728,-1.11081 -20.99136,-9.19237 -26.45292,-14.52463 -12.99541,-12.68788 -18.96226,-26.58487 -19.99256,-46.56348 -0.84558,-16.39631 0.76574,-24.74495 7.29272,-37.78544 16.20505,-32.37672 57.50676,-43.91808 84.22796,-23.53674 2.2534,1.71873 4.4198,3.12495 4.8141,3.12495 0.3943,0 0.717,-13.37904 0.717,-29.73119 v -29.7312 h 18.9859 18.986 l -0.3249,88.24471 -0.3249,88.24472 -18.6611,0.35007 -18.661,0.3502 v -5.78506 -5.78493 l -5.887,4.49497 c -10.2553,7.83057 -28.9116,11.43209 -44.7193,8.63305 z m 30.7696,-32.08071 c 6.2812,-1.74427 14.5648,-9.27386 17.5161,-15.92176 3.5665,-8.03374 4.2406,-18.68586 1.7902,-28.28702 -3.8636,-15.1376 -13.975,-23.39477 -28.5683,-23.32924 -9.9151,0.0443 -16.6562,3.15517 -23.0663,10.64389 -5.3065,6.19965 -7.2974,12.40045 -7.2974,22.72893 0,11.6516 2.1183,18.25027 8.0057,24.93879 8.4413,9.58976 19.1055,12.70141 31.62,9.22641 z m 110.928,30.97029 c -22.9495,-6.09642 -41.317,-25.63348 -45.5472,-48.44768 -9.1215,-49.19236 24.9512,-88.0397 72.2221,-82.34227 33.2179,4.00365 55.2975,31.55923 54.0284,67.42796 l -0.3659,10.34266 -44.5968,0.33248 c -29.234,0.218 -44.5968,0.77669 -44.5968,1.62207 0,2.59116 3.9896,10.74232 6.7024,13.69381 10.5032,11.42689 33.2282,11.81327 43.9536,0.74745 2.3332,-2.40721 4.7554,-4.37682 5.3828,-4.37682 2.0954,0 27.4617,14.3307 27.4617,15.51451 0,0.6418 -3.5583,4.68892 -7.9073,8.99374 -8.6556,8.56764 -19.9876,14.81158 -31.0587,17.11328 -9.2319,1.91937 -27.299,1.60473 -35.6783,-0.62119 z m 42.6018,-81.01257 c -2.5836,-15.92087 -21.6634,-24.33316 -37.2621,-16.42871 -6.6351,3.36228 -11.7454,9.94541 -13.6139,17.53736 l -0.8562,3.47919 h 26.2383 26.2385 z M 47.887227,796.95964 c -0.301495,-0.53971 -0.48646,-38.84108 -0.411051,-85.1142 l 0.137145,-84.13297 41.750183,-0.38573 c 27.455686,-0.25367 44.997216,0.11981 51.233676,1.091 26.47329,4.12236 44.45485,17.6749 50.78747,38.27797 4.00232,13.02163 3.04814,29.22746 -2.36787,40.21775 -5.92904,12.03153 -19.78554,24.65792 -29.76523,27.12283 -1.92013,0.4743 -3.78004,1.32968 -4.13301,1.90077 -0.35298,0.57122 6.29997,10.89819 14.78436,22.94895 8.48441,12.05074 17.88769,25.40573 20.89636,29.67779 3.00854,4.27207 5.47006,8.12814 5.47006,8.56904 0,0.44091 -10.035,0.64625 -22.30007,0.45622 l -22.30017,-0.34551 -19.76631,-28.81776 -19.76644,-28.81775 -12.407773,0.35172 -12.407773,0.3517 -0.243794,28.46605 -0.243795,28.46604 -19.198892,0.34868 c -10.559383,0.19191 -19.445592,-0.0923 -19.747076,-0.63259 z m 87.654513,-90.27061 c 12.98685,-2.96337 19.93142,-12.30315 18.69739,-25.14612 -0.78415,-8.16059 -5.11959,-14.50641 -12.3716,-18.10852 -5.19385,-2.57981 -7.82917,-2.86217 -30.04749,-3.21931 l -24.354271,-0.39146 v 24.11316 24.11317 l 21.191381,-0.0316 c 11.65527,-0.0164 23.75333,-0.6155 26.88459,-1.33006 z m 750.7913,-51.64792 c -0.2796,-0.27766 3.89382,-8.95167 9.27427,-19.27559 l 9.78264,-18.77076 19.29366,-0.0181 c 11.67118,-0.0114 19.29364,0.46816 19.29364,1.21263 0,0.67689 -5.42859,8.44911 -12.06356,17.27161 -6.63495,8.82248 -12.57377,16.95081 -13.19737,18.06295 -0.9417,1.67945 -3.73801,2.02205 -16.50434,2.02205 -8.45381,0 -15.59932,-0.22717 -15.87894,-0.50482 z M 642.23726,571.29417 c -5.38393,-3.09436 -25.93573,-24.55491 -25.93573,-27.08251 0,-5.08899 5.2901,-21.69286 10.07704,-31.6285 6.52636,-13.54594 15.3417,-25.40561 29.45642,-39.629 10.87197,-10.95572 19.05604,-17.5432 52.19044,-42.00881 31.28018,-23.09649 44.91338,-44.02596 44.891,-68.91589 -0.0148,-16.54885 -4.95309,-28.27332 -17.4307,-41.38449 l -6.8761,-7.22523 3.80153,-4.79376 c 7.99008,-10.07555 7.42033,-9.87351 27.30547,-9.68271 24.04731,0.23075 42.96702,3.40499 65.09161,10.92072 9.64821,3.2775 9.68624,2.38484 -1.05336,24.72297 -16.16714,33.62729 -35.47454,62.64273 -105.39318,158.38627 -47.81442,65.47498 -53.51354,72.97108 -58.00171,76.28998 -3.98201,2.94462 -14.48511,4.12167 -18.12273,2.03096 z m -71.58233,-74.20918 c -10.03196,-10.79268 -9.71247,-9.7634 -4.91178,-15.82362 8.78123,-11.08511 19.01596,-22.06612 22.1097,-23.72183 3.00203,-1.60664 3.51724,-1.40642 8.23459,3.19993 2.76771,2.70261 5.0322,5.26372 5.0322,5.69135 0,0.42766 -3.92052,5.66395 -8.71228,11.63623 -4.79175,5.97226 -10.34263,13.7614 -12.33528,17.30918 -1.99265,3.54779 -3.93444,6.4511 -4.31511,6.4518 -0.38066,7.2e-4 -2.67657,-2.13365 -5.10204,-4.74304 z m 40.68606,-51.11782 -4.32795,-5.21024 4.32795,-3.63245 c 2.38038,-1.99785 10.1689,-7.39402 17.30782,-11.99151 14.10091,-9.08103 14.05936,-9.07743 19.32926,-1.67652 l 2.45982,3.45449 -11.69127,8.59502 c -6.43018,4.72726 -13.56136,10.19748 -15.84704,12.15604 -2.28567,1.95858 -4.84762,3.55078 -5.69321,3.53823 -0.84558,-0.0126 -3.485,-2.36741 -5.86538,-5.23306 z m -90.24102,-7.72423 c -20.15793,-24.07935 -47.93884,-66.97236 -61.65311,-95.19084 -13.86117,-28.52069 -20.629,-53.12853 -23.04982,-83.80909 -4.88354,-61.89219 15.50615,-118.05559 58.4494,-160.998835 27.26886,-27.268862 58.08992,-44.482208 97.2699,-54.324516 24.33022,-6.111952 66.56209,-6.772982 91.43914,-1.431243 42.1936,9.060056 81.38631,31.65704 109.72414,63.262644 42.02775,46.87418 59.22599,107.59458 48.77557,172.20782 -1.06216,6.56727 -2.39544,12.40471 -2.9628,12.97206 -0.56737,0.56738 -6.66274,-0.43909 -13.54524,-2.23659 -18.53194,-4.83997 -33.10087,-6.96223 -53.94757,-7.85856 -10.26359,-0.4413 -18.66107,-0.88954 -18.66107,-0.99609 0,-0.10647 1.65999,-4.74221 3.68887,-10.30146 9.6596,-26.46796 8.24899,-59.77033 -3.64262,-85.99675 -11.94285,-26.33937 -38.90438,-51.85489 -65.83442,-62.30358 -18.80295,-7.29541 -40.44722,-10.14001 -60.22287,-7.91476 -33.24951,3.7414 -63.3669,19.81687 -83.04788,44.32764 -26.80337,33.38104 -33.80066,76.70086 -18.80978,116.45024 3.6734,9.74025 12.28711,23.99227 19.71438,32.61887 23.94291,27.8091 57.6332,42.48695 96.18791,41.90614 l 13.91673,-0.20966 0.39125,5.27074 c 0.48065,6.47482 -2.51593,11.73802 -11.02108,19.35739 -8.13264,7.28567 -20.00916,14.01947 -49.46514,28.04597 -31.98934,15.23286 -48.62024,25.50735 -62.8542,38.83102 l -5.28955,4.95128 z m 141.69609,-26.82103 c -1.91356,-2.30674 -3.47918,-4.80023 -3.47918,-5.54109 0,-0.74087 2.70426,-3.16068 6.00949,-5.37736 3.30523,-2.21669 9.47599,-7.40287 13.71283,-11.52486 l 7.70331,-7.49449 4.63197,2.73292 c 2.54758,1.50311 4.63195,3.16414 4.63195,3.69118 0,2.5669 -10.10569,13.6711 -18.54547,20.37788 -5.19956,4.1319 -9.84344,7.47144 -10.31973,7.4212 -0.4763,-0.0502 -2.43162,-1.97866 -4.34517,-4.28538 z m 34.47553,-42.31711 c -2.98479,-0.84552 -3.13961,-1.32021 -2.74956,-8.43028 0.3661,-6.67387 -0.66642,-11.63391 -4.0768,-19.58381 -0.60366,-1.40717 0.43277,-2.56901 3.66799,-4.11176 2.48015,-1.18271 5.08557,-2.15037 5.78981,-2.15037 0.70424,0 2.67199,2.98893 4.37277,6.64207 3.14073,6.746 4.03467,16.28703 2.32632,24.82871 -0.83408,4.17046 -2.61814,4.70688 -9.33053,2.80544 z m -81.40655,-66.95364 c -1.76662,-1.9521 -2.09382,-5.51077 -2.09382,-22.77283 v -20.45894 h -20.59359 c -28.09127,0 -26.22248,1.78753 -26.19786,-25.05858 0.01,-11.61582 0.43764,-21.74607 0.94886,-22.51171 2.35013,-3.51961 7.10161,-4.30115 26.14947,-4.30115 h 19.69312 v -20.30002 c 0,-19.86625 0.0665,-20.36638 3.10539,-23.40541 3.03722,-3.03723 3.54781,-3.10539 23.26524,-3.10539 27.05316,0 25.33259,-1.68847 25.78416,25.30314 l 0.34923,20.8751 21.30663,0.63258 c 27.6858,0.82197 26.13677,-0.74661 26.13677,26.46664 0,15.13739 -0.42632,20.44459 -1.79264,22.31639 -1.62129,2.2211 -3.88873,2.5163 -23.7217,3.08841 l -21.92906,0.63259 -0.33466,20.87509 c -0.28549,17.80778 -0.64633,21.10747 -2.45583,22.45654 -1.50394,1.12126 -8.43638,1.58144 -23.82354,1.58144 -19.41814,0 -21.92273,-0.24352 -23.79617,-2.31364 z"
       id="path1" />
  </g>
</svg>
